<?xml version="1.0" standalone="no"?>
<!DOCTYPE svg PUBLIC "-//W3C//DTD SVG 1.1//EN" "http://www.w3.org/Graphics/SVG/1.1/DTD/svg11.dtd" >
<svg xmlns="http://www.w3.org/2000/svg">
<metadata></metadata>
<defs>
<font id="cosmos_bqlight_italic" horiz-adv-x="1150" >
<font-face units-per-em="2048" ascent="1536" descent="-512" />
<missing-glyph horiz-adv-x="598" />
<glyph unicode="&#xfb01;" horiz-adv-x="1024" d="M10 0l215 936h-149l24 106h150q1 5 8.5 36t10 41t9.5 37t12 42t13 36.5t16.5 38.5t18.5 32q52 82 132.5 125t178.5 43q82 0 152 -25l-15 -62h-32q-121 0 -201.5 -67.5t-108.5 -192.5l-18 -84h201l-25 -106h-201l-217 -936h-174zM543 0l241 1042h177l-240 -1042h-178z M848 1352q0 41 29.5 70.5t70.5 29.5t71 -29.5t30 -70.5t-30 -71t-71 -30t-70.5 30t-29.5 71z" />
<glyph unicode="&#xfb02;" horiz-adv-x="1024" d="M10 0l215 936h-149l24 106h150q1 5 8.5 36t10 41t9.5 37t12 42t13 36.5t16.5 38.5t18.5 32q52 82 132.5 125t178.5 43q82 0 152 -25l-15 -62h-32q-121 0 -201.5 -67.5t-108.5 -192.5l-18 -84h201l-25 -106h-201l-217 -936h-174zM545 0l334 1446h176l-334 -1446h-176z" />
<glyph horiz-adv-x="0" />
<glyph horiz-adv-x="682" />
<glyph unicode=" "  horiz-adv-x="598" />
<glyph unicode="&#x09;" horiz-adv-x="598" />
<glyph unicode="&#xa0;" horiz-adv-x="598" />
<glyph unicode="!" horiz-adv-x="555" d="M72 80q0 43 30.5 73.5t73.5 30.5t73 -30.5t30 -73.5q0 -42 -30.5 -73.5t-72.5 -31.5q-46 0 -75 30.5t-29 74.5zM227 399q5 175 28 341.5t79 406.5l69 299h181l-72 -309q-34 -153 -100 -366.5t-136 -371.5h-49z" />
<glyph unicode="&#x22;" horiz-adv-x="657" d="M180 891l82 631h184l-200 -631h-66zM522 891l84 631h182l-200 -631h-66z" />
<glyph unicode="#" horiz-adv-x="1353" d="M74 502l24 110h328l61 219h-323l26 113h326l127 473h119l-127 -473h227l131 473h117l-129 -473h326l-23 -113h-336l-59 -219h328l-25 -110h-334l-137 -504h-115l135 504h-227l-135 -504h-119l135 504h-321zM545 612h229l60 219h-230z" />
<glyph unicode="$" horiz-adv-x="1110" d="M10 297l56 25q32 -49 63 -86t70 -70.5t86.5 -53t101.5 -24.5l129 565q-56 22 -101 45.5t-89 57t-73 72t-47 90.5t-18 112q0 125 63 220.5t165.5 144.5t226.5 49h55l45 186h76l-47 -203q243 -50 289 -325l-64 -19q-40 99 -95.5 152t-156.5 78l-120 -522 q149 -59 233 -149.5t84 -235.5q0 -91 -34 -171t-96.5 -140t-160 -95t-217.5 -35l-45 -192h-76l45 198q-265 36 -348 326zM375 1061q0 -90 46 -144.5t134 -95.5l115 500q-131 0 -213 -70t-82 -190zM463 86q122 6 205.5 89t83.5 208q0 164 -166 240z" />
<glyph unicode="%" horiz-adv-x="1878" d="M106 813q0 129 44.5 279t121.5 231q109 115 271 115q148 0 223.5 -94t75.5 -244q0 -141 -52.5 -296t-144.5 -239q-100 -90 -248 -90q-97 0 -164 46.5t-97 121t-30 170.5zM246 788q0 -99 39.5 -160t130.5 -61q76 0 143 74q59 63 103.5 218t44.5 257q0 44 -7.5 82.5 t-25 74.5t-51 57.5t-80.5 21.5q-64 0 -117 -43t-85.5 -107.5t-54.5 -143.5t-31 -147t-9 -123zM500 0l790 1409h125l-790 -1409h-125zM1071 309q0 129 44.5 279t121.5 231q111 117 270 117q148 0 223.5 -95t75.5 -245q0 -141 -53 -296t-145 -239q-100 -90 -246 -90 q-97 0 -164 46.5t-97 121t-30 170.5zM1210 285q0 -99 39.5 -160.5t130.5 -61.5q75 0 142 74q59 63 104 218t45 257q0 44 -7.5 82.5t-25 75.5t-51 58.5t-80.5 21.5q-64 0 -117 -43t-85.5 -107.5t-54.5 -144t-31 -147.5t-9 -123z" />
<glyph unicode="&#x26;" horiz-adv-x="1323" d="M25 350q0 84 33 156t90.5 124t128.5 88.5t155 59.5q-45 130 -45 221q0 151 99.5 250t250.5 99q124 0 211.5 -69t87.5 -189q0 -62 -24.5 -116t-59.5 -90t-90.5 -69.5t-101 -52.5t-107.5 -41q51 -107 113 -200t154 -216q67 116 96 285h57q2 -14 2 -41q0 -150 -86 -326 q71 -84 129.5 -130t141.5 -70l-13 -52q-116 0 -194.5 26.5t-169.5 100.5q-171 -141 -400 -141q-118 0 -221 44.5t-170 136t-67 212.5zM215 358q0 -86 47 -151t119.5 -97t157.5 -32q148 0 270 98q-103 125 -176 231.5t-150 245.5q-268 -96 -268 -295zM557 1026 q0 -36 7.5 -71.5t16.5 -59t27 -66.5q37 16 54 23t52 24.5t53 30.5t43.5 35t38.5 43t22.5 50t9.5 61q0 64 -40 106.5t-104 42.5q-70 0 -125 -57t-55 -162z" />
<glyph unicode="'" horiz-adv-x="313" d="M180 891l82 631h184l-200 -631h-66z" />
<glyph unicode="(" horiz-adv-x="598" d="M150 559q0 273 137.5 514.5t374.5 372.5h53q-192 -200 -298 -477t-106 -563q0 -187 60 -406h-54q-82 118 -124.5 264t-42.5 295z" />
<glyph unicode=")" horiz-adv-x="598" d="M-96 0q192 201 297.5 477t105.5 563q0 191 -59 406h53q83 -116 125.5 -262t42.5 -297q0 -277 -138 -514t-374 -373h-53z" />
<glyph unicode="*" horiz-adv-x="724" d="M168 1243q22 57 53 105l213 -111l53 229q63 -5 115 -26l-51 -223l225 22q15 -61 15 -117l-232 -24l92 -211q-54 -36 -106 -51l-90 215l-174 -162q-45 40 -76 88l170 158z" />
<glyph unicode="+" horiz-adv-x="1482" d="M166 539l35 153h458l109 469h180l-108 -469h460l-36 -153h-459l-109 -473h-180l109 473h-459z" />
<glyph unicode="," horiz-adv-x="468" d="M-158 -313l221 467h211l-376 -494z" />
<glyph unicode="-" horiz-adv-x="641" d="M8 481l23 101h530l-22 -101h-531z" />
<glyph unicode="." horiz-adv-x="468" d="M-8 80q0 43 30.5 73.5t73.5 30.5t73 -30.5t30 -73.5q0 -42 -30.5 -73.5t-72.5 -31.5q-46 0 -75 30.5t-29 74.5z" />
<glyph unicode="/" horiz-adv-x="768" d="M-166 0l940 1446h172l-940 -1446h-172z" />
<glyph unicode="0" horiz-adv-x="1236" d="M59 487q0 84 11 173t36 183.5t61.5 181.5t91.5 165t122.5 135.5t157 91t192.5 33.5q113 0 201 -40t143 -110.5t83 -162.5t28 -201q0 -27 -2.5 -67.5t-12 -106.5t-24 -134.5t-41 -148t-61 -151t-86.5 -138.5t-115 -115.5t-149 -78t-185 -29.5q-115 0 -203 40t-141.5 111.5 t-80 164t-26.5 204.5zM252 444q0 -71 13 -132t42 -115t84 -85.5t131 -31.5q83 0 154.5 46.5t121.5 123.5t89 171t61.5 195t33.5 189t11 160t-13 133.5t-41.5 117t-84 87.5t-131.5 32q-84 0 -156.5 -46t-122.5 -123t-88.5 -170.5t-60 -196t-32.5 -191.5t-11 -164z" />
<glyph unicode="1" horiz-adv-x="1236" d="M319 1092l515 317h59l-326 -1409h-176l264 1145l-315 -98z" />
<glyph unicode="2" horiz-adv-x="1236" d="M-70 0l19 80l739 622q238 197 238 375q0 30 -7.5 59.5t-27 61.5t-49.5 56t-79.5 39.5t-111.5 15.5q-129 0 -236 -68.5t-177 -185.5l-58 30q73 168 199.5 264.5t306.5 96.5q64 0 125 -13.5t115.5 -41.5t95 -68.5t64.5 -98t24 -126.5q0 -53 -15 -106.5t-37.5 -98t-61 -93.5 t-71 -84.5t-83 -81t-83 -71.5t-83.5 -67l-465 -369h772l-29 -127h-1024z" />
<glyph unicode="3" horiz-adv-x="1236" d="M6 332l62 12q23 -84 85 -142.5t139 -84t165 -25.5q97 0 179.5 35.5t135.5 109.5t53 173q0 87 -41 151q-23 36 -54 61t-59.5 38t-72 19.5t-72 7.5t-80.5 1l27 123q70 1 112 4t103 14t108 37t83 68q59 69 59 158q0 105 -74 164t-182 59q-125 0 -230.5 -70t-181.5 -184 l-57 31q61 164 190.5 260t301.5 96q187 0 300 -97t113 -247q0 -149 -105.5 -244t-260.5 -115q128 -37 202 -119t74 -210q0 -85 -29.5 -158t-82 -126t-123 -91t-152.5 -57t-170 -19q-194 0 -317.5 90.5t-147.5 276.5z" />
<glyph unicode="4" horiz-adv-x="1236" d="M16 377l15 61l862 969h223l-211 -911h195l-27 -119h-194l-88 -377h-177l88 377h-686zM258 496h471l168 716z" />
<glyph unicode="5" horiz-adv-x="1236" d="M49 324l60 14q14 -40 31.5 -72.5t49 -66.5t72.5 -57.5t102.5 -38.5t137.5 -15q169 0 282 107.5t113 275.5q0 40 -8.5 81t-33.5 89t-64 84.5t-107 61t-156 24.5q-62 0 -114 -10t-93.5 -31t-63.5 -35t-54 -39l-47 23l211 690h802l-26 -119h-641l-115 -379q92 25 193 25 q119 0 213 -31.5t149 -78.5t91 -109t48.5 -117t12.5 -108q0 -33 -5.5 -71.5t-22.5 -91t-43.5 -101.5t-73 -98.5t-106 -85.5t-148 -58.5t-193.5 -22.5q-108 0 -191 27t-129 65.5t-77 92t-41.5 93.5t-14.5 83z" />
<glyph unicode="6" horiz-adv-x="1236" d="M102 492q0 87 11.5 177t38 183.5t64.5 179t95 161.5t126 131.5t161 87.5t197 32q85 0 152.5 -22t110 -56t72 -81.5t42.5 -93.5t18 -97l-64 -11q-14 47 -38 87t-61 76.5t-93.5 57.5t-126.5 21q-82 0 -152.5 -33.5t-121 -85.5t-92.5 -125.5t-68 -143t-47 -149.5 q136 136 344 136q203 0 322.5 -115t119.5 -301q0 -76 -21 -152.5t-65.5 -147t-107 -124.5t-151.5 -86.5t-192 -32.5q-227 0 -350 142t-123 385zM285 418q0 -161 83 -248.5t201 -87.5q87 0 154.5 37.5t106.5 99.5t59 132.5t20 144.5q0 83 -25 144.5t-68 95t-92.5 49.5 t-107.5 16q-144 0 -237.5 -104.5t-93.5 -278.5z" />
<glyph unicode="7" horiz-adv-x="1236" d="M145 0l816 1284h-791l29 123h1009l-14 -66l-838 -1341h-211z" />
<glyph unicode="8" horiz-adv-x="1236" d="M37 356q0 168 113 280.5t280 131.5q-97 35 -153 114.5t-56 182.5q0 43 12.5 89.5t47 99.5t87.5 94t143 68.5t204 27.5q82 0 158.5 -20.5t141 -60t103.5 -106.5t39 -153q0 -128 -85 -220t-220 -136q117 -39 181.5 -128.5t64.5 -207.5q0 -44 -11 -90t-35.5 -98.5t-69 -98 t-105 -83t-150.5 -59.5t-199 -22q-77 0 -147.5 14t-133.5 45t-109.5 76t-73.5 112t-27 148zM236 354q0 -138 85.5 -213t225.5 -75q151 0 252.5 98.5t101.5 249.5q0 134 -84 209t-221 75q-88 0 -156 -27.5t-105.5 -67t-61 -90t-30.5 -88.5t-7 -71zM414 1051q0 -109 73 -171.5 t183 -62.5q130 0 213.5 79t83.5 208q0 111 -72 175t-184 64q-130 0 -213.5 -82t-83.5 -210z" />
<glyph unicode="9" horiz-adv-x="1236" d="M55 315l64 13q29 -115 113 -179.5t204 -64.5q81 0 152.5 33.5t122.5 86.5t94 126t69.5 142.5t45.5 145.5q-127 -135 -345 -135q-92 0 -168 25t-125.5 66.5t-83.5 96t-48.5 112t-14.5 116.5q0 163 75 288.5t196.5 190t267.5 64.5q106 0 188.5 -31t134.5 -81.5t85.5 -120.5 t47 -141t13.5 -150q0 -72 -9.5 -152.5t-33.5 -174.5t-59 -181.5t-91 -169.5t-125.5 -143t-166.5 -97.5t-209 -36.5q-164 0 -272.5 87.5t-121.5 264.5zM338 907q0 -71 19.5 -126t49.5 -87.5t70.5 -53t76.5 -27.5t73 -7q105 0 183 55t115.5 141t37.5 189q0 94 -31.5 168.5 t-99.5 121t-164 46.5q-66 0 -121.5 -24.5t-93 -66t-64 -96t-39 -113.5t-12.5 -120z" />
<glyph unicode=":" horiz-adv-x="555" d="M76 80q0 43 30.5 73.5t73.5 30.5t73 -30.5t30 -73.5t-30 -74t-73 -31t-73.5 31t-30.5 74zM276 963q0 43 31 73.5t74 30.5t73.5 -30.5t30.5 -73.5t-30.5 -74t-73.5 -31q-41 0 -73 32t-32 73z" />
<glyph unicode=";" horiz-adv-x="555" d="M-70 -313l222 467h208l-376 -494zM293 963q0 43 30.5 73.5t73.5 30.5t74 -30.5t31 -73.5t-31 -74t-74 -31t-73.5 31t-30.5 74z" />
<glyph unicode="&#x3c;" horiz-adv-x="1482" d="M166 541l43 178l1065 483l-45 -190l-875 -389l697 -387l-41 -175z" />
<glyph unicode="=" horiz-adv-x="1482" d="M127 332l37 157h1075l-37 -157h-1075zM215 717l37 157h1075l-37 -157h-1075z" />
<glyph unicode="&#x3e;" horiz-adv-x="1482" d="M174 41l45 188l875 389l-697 390l41 172l844 -478l-41 -180z" />
<glyph unicode="?" horiz-adv-x="1024" d="M203 80q0 43 30.5 73.5t73.5 30.5t73 -30.5t30 -73.5t-30 -74t-73 -31t-73.5 31t-30.5 74zM227 1165q57 160 156.5 242t263.5 82q74 0 141.5 -19.5t122 -57.5t87 -99.5t32.5 -138.5q0 -99 -53 -183q-33 -55 -91.5 -102t-113.5 -75t-121 -69t-106 -81q-55 -55 -83.5 -114 t-53.5 -151h-56v27q0 134 37.5 232t128.5 176q24 20 85.5 53.5t114.5 71.5t81 85q35 61 35 125q0 89 -61.5 144t-151.5 55q-105 0 -192.5 -62.5t-152.5 -162.5z" />
<glyph unicode="@" horiz-adv-x="1787" d="M82 457q0 198 82 382.5t218 319.5t323 216t387 81q287 0 451.5 -152t164.5 -417q0 -124 -42.5 -251.5t-119.5 -236.5q-84 -120 -187.5 -188t-199.5 -68q-72 0 -106 40.5t-35 129.5q-86 -91 -161 -131.5t-157 -40.5q-109 0 -169 72t-60 201q0 118 49.5 237.5t138.5 214.5 q190 205 476 205q58 0 153 -14l60 -10l-158 -512q-41 -135 -41 -199q0 -86 63 -86q67 0 177 123q87 101 139.5 242t52.5 274q0 220 -133.5 344.5t-368.5 124.5q-169 0 -327.5 -73.5t-275 -195t-187 -287t-70.5 -341.5q0 -273 171 -436.5t454 -163.5q224 0 442 108 q76 37 128.5 71.5t139.5 104.5l45 -63q-99 -88 -159 -130.5t-144 -84.5q-231 -117 -467 -117q-165 0 -304 51.5t-236.5 144t-152 224t-54.5 287.5zM618 422q0 -84 37.5 -131t102.5 -47q137 0 278 194l154 525q-66 10 -100 10q-190 0 -322 -166q-67 -84 -108.5 -190 t-41.5 -195z" />
<glyph unicode="A" horiz-adv-x="1280" d="M-160 0l940 1446h58l288 -1446h-184l-80 420h-579l-265 -420h-178zM356 537h486l-113 583z" />
<glyph unicode="B" horiz-adv-x="1280" d="M6 0l334 1446h444q79 0 149.5 -18.5t129 -55.5t93 -101.5t34.5 -148.5q0 -142 -97 -239t-239 -127q128 -25 202 -111.5t74 -208.5q0 -119 -69 -225q-43 -65 -97 -108.5t-122 -65t-135.5 -29.5t-157.5 -8h-543zM217 119h246q67 0 118 5t108 19t105 44.5t85 76.5 q63 75 63 180q0 277 -545 277h-41zM377 807h129q53 0 103 4.5t108 16t106 34t88.5 54t63 80.5t22.5 110q0 80 -47 133q-38 45 -93 68t-96.5 26.5t-115.5 3.5h-147z" />
<glyph unicode="C" horiz-adv-x="1366" d="M74 602q0 196 82.5 390.5t226.5 320.5q201 176 485 176q95 0 177 -20.5t154 -64t125 -118t79 -176.5l-72 -25q-63 131 -180.5 200t-265.5 69q-113 0 -212.5 -43.5t-171 -117.5t-124 -170t-78 -201.5t-25.5 -211.5q0 -147 54 -261.5t162.5 -181.5t257.5 -67 q153 0 265 61.5t212 186.5l53 -31q-169 -356 -559 -356q-297 0 -471 172t-174 469z" />
<glyph unicode="D" horiz-adv-x="1449" d="M2 0l334 1446h340q99 0 179.5 -11t168 -40t160.5 -89t127 -149q84 -141 84 -330q0 -259 -150.5 -476t-392.5 -300q-150 -51 -342 -51h-508zM217 121h287q195 0 351 87t247 255q102 189 102 377q0 184 -88 301q-56 76 -140.5 119.5t-164.5 56t-186 12.5h-129z" />
<glyph unicode="E" d="M2 0l334 1446h866l-26 -119h-680l-117 -502h616l-28 -120h-615l-135 -582h774l-28 -123h-961z" />
<glyph unicode="F" horiz-adv-x="1024" d="M0 0l334 1446h844l-27 -121h-657l-119 -518h622l-28 -125h-623l-158 -682h-188z" />
<glyph unicode="G" horiz-adv-x="1492" d="M76 586q0 127 32 254t98 244.5t158.5 208t223.5 144.5t282 54q197 0 340.5 -97t186.5 -282l-68 -22q-70 128 -184.5 195t-261.5 67q-111 0 -209.5 -44t-169.5 -118.5t-122.5 -171t-77 -203.5t-25.5 -215q0 -91 17 -170t54 -146t91.5 -115t132.5 -74.5t174 -26.5 q146 0 305 65l102 447h-350l26 116h529l-141 -610q-98 -66 -232.5 -97.5t-271.5 -31.5q-294 0 -466.5 172.5t-172.5 456.5z" />
<glyph unicode="H" horiz-adv-x="1449" d="M0 0l334 1446h188l-143 -629h751l146 629h190l-336 -1446h-188l162 696h-754l-162 -696h-188z" />
<glyph unicode="I" horiz-adv-x="512" d="M4 0l334 1446h188l-333 -1446h-189z" />
<glyph unicode="J" horiz-adv-x="937" d="M-113 213l64 25q102 -146 258 -146q66 0 119 23t88 58t63 88.5t43.5 103t30.5 114.5l223 967h189l-220 -957q-15 -67 -31.5 -121.5t-40 -110.5t-51.5 -99t-66.5 -81.5t-84.5 -63.5t-106.5 -39.5t-131.5 -14.5q-132 0 -220 64.5t-126 189.5z" />
<glyph unicode="K" horiz-adv-x="1236" d="M4 0l334 1446h186l-151 -660l798 660h218l-826 -674l430 -582q47 -64 87 -104.5t104 -85.5h-217q-32 13 -54.5 29.5t-35 31t-41.5 52.5l-474 632l-172 -745h-186z" />
<glyph unicode="L" horiz-adv-x="1110" d="M4 0l334 1446h186l-305 -1323h766l-29 -123h-952z" />
<glyph unicode="M" horiz-adv-x="1748" d="M-80 0l539 1446h100l232 -1143l743 1143h98l-104 -1446h-176l82 1047l-684 -1047h-74l-207 1073l-389 -1073h-160z" />
<glyph unicode="N" horiz-adv-x="1492" d="M2 0l334 1446h158l602 -1114l254 1114h159l-340 -1471h-73l-660 1223l-276 -1198h-158z" />
<glyph unicode="O" horiz-adv-x="1579" d="M76 582q0 178 56 341.5t157 290t255.5 202t338.5 75.5q295 0 466 -172.5t171 -466.5q0 -132 -33.5 -260.5t-101.5 -242.5t-162.5 -201t-225.5 -138t-282 -51q-290 0 -464.5 167t-174.5 456zM283 573q0 -224 112.5 -361.5t329.5 -137.5q118 0 218 51t167.5 133.5 t114.5 189.5t68.5 217t21.5 218q0 106 -27.5 195.5t-81 156.5t-138 105t-191.5 38q-119 0 -219.5 -51t-168 -133.5t-115.5 -189t-69.5 -216t-21.5 -215.5z" />
<glyph unicode="P" d="M2 0l336 1446h455q84 0 156.5 -21t129.5 -62t90 -107t33 -150q0 -117 -55.5 -208.5t-147.5 -146t-202.5 -82.5t-229.5 -28q-77 0 -223 23l-154 -664h-188zM362 739h76q78 0 142.5 7t133.5 25t126 55t98 92q66 89 66 188q0 100 -72.5 163.5t-196.5 63.5h-237z" />
<glyph unicode="Q" horiz-adv-x="1579" d="M76 598q0 128 32.5 255t100 242t161.5 203t227 140.5t286 52.5q130 0 243.5 -39.5t202 -116t140 -201.5t51.5 -284q0 -180 -63 -350t-189 -305.5t-293 -194.5q-93 -32 -223 -41q50 -19 171.5 -74t214 -94t226 -72.5t248.5 -33.5l-27 -64q-59 -10 -143 -10 q-223 0 -496.5 103t-494.5 251q-94 63 -158 121.5t-116 133.5t-76.5 168.5t-24.5 209.5zM283 573q0 -224 113.5 -361.5t330.5 -137.5q118 0 217.5 51t166.5 133.5t114 189.5t68.5 217t21.5 218q0 107 -26.5 193.5t-69 141.5t-100.5 92t-118 52.5t-124 15.5 q-120 0 -221.5 -51.5t-169 -134.5t-114.5 -190t-68 -215.5t-21 -213.5z" />
<glyph unicode="R" horiz-adv-x="1280" d="M4 0l334 1446h444q53 0 87 -3t86 -14t96 -39.5t82 -74.5q61 -74 61 -189t-59.5 -211t-161.5 -149q-61 -33 -187 -57l279 -537q30 -59 57 -92.5t82 -79.5h-219q-44 39 -67.5 71t-55.5 93l-274 526q-27 -2 -78 -2q-29 0 -86.5 1t-71.5 1l-159 -690h-189zM371 772 q35 -2 104 -2q141 0 247 28.5t165.5 77t88 105t28.5 119.5q0 38 -13 74t-43 73t-91 59.5t-146 22.5h-211z" />
<glyph unicode="S" horiz-adv-x="1110" d="M-33 344l64 21q148 -265 399 -265q71 0 129.5 20t95.5 51t63 71t37 78.5t11 74.5q0 54 -18.5 98.5t-52.5 77t-69.5 55t-82.5 44.5q-82 38 -139.5 74t-108 84t-75.5 109.5t-25 135.5q0 172 136.5 288t342.5 116q78 0 146.5 -18t128.5 -56.5t101 -106t54 -157.5l-70 -17 q-11 22 -17 35t-23.5 39.5t-34 43.5t-45 39t-59.5 35t-75.5 22.5t-95.5 9.5q-81 0 -149.5 -26t-114 -84t-45.5 -138q0 -55 16 -95t56.5 -74.5t84.5 -58.5t125 -61q306 -141 306 -391q0 -51 -14 -107t-50.5 -118.5t-91.5 -111t-146 -80.5t-204 -32q-394 0 -490 375z" />
<glyph unicode="T" horiz-adv-x="1067" d="M150 1325l26 121h1065l-29 -121h-428l-307 -1325h-188l307 1325h-446z" />
<glyph unicode="U" horiz-adv-x="1409" d="M94 369q0 105 31 239l194 838h189l-197 -846q-37 -159 -37 -221q0 -125 77.5 -196.5t203.5 -71.5q209 0 426 229l254 1106h184l-334 -1446h-184l49 209q-188 -236 -436 -236q-182 0 -301 108t-119 288z" />
<glyph unicode="V" horiz-adv-x="1236" d="M158 1446h180l205 -1141l700 1141h178l-923 -1464h-78z" />
<glyph unicode="W" horiz-adv-x="1748" d="M143 1446h183l63 -1088l608 1088h64l149 -1075l549 1075h162l-750 -1462h-71l-162 1091l-612 -1091h-78z" />
<glyph unicode="X" horiz-adv-x="1236" d="M-166 0l721 743l-352 703h200l285 -567l549 567h190l-673 -703l372 -743h-200l-301 606l-582 -606h-209z" />
<glyph unicode="Y" horiz-adv-x="1193" d="M-233 -428l4 74h22q342 0 602 458l-243 1342h178l205 -1133l710 1133h174l-891 -1403q-43 -68 -73.5 -112.5t-73 -99t-79 -89.5t-86 -71.5t-99.5 -56.5t-113.5 -33t-134.5 -13q-40 0 -102 4z" />
<glyph unicode="Z" horiz-adv-x="1280" d="M-100 0l10 45l1180 1280h-828l29 121h1104l-11 -45l-1169 -1276h922l-31 -125h-1206z" />
<glyph unicode="[" horiz-adv-x="555" d="M4 0l334 1446h369l-19 -86h-186l-293 -1272h184l-20 -88h-369z" />
<glyph unicode="\" horiz-adv-x="768" d="M168 1446h172l281 -1446h-172z" />
<glyph unicode="]" horiz-adv-x="555" d="M-133 0l20 88h183l292 1272h-182l21 86h368l-333 -1446h-369z" />
<glyph unicode="^" horiz-adv-x="1482" d="M213 588l610 858h183l221 -858h-187l-157 684l-473 -684h-197z" />
<glyph unicode="_" horiz-adv-x="1024" d="M76 -301h1065v-121h-1065v121z" />
<glyph unicode="`" horiz-adv-x="598" d="M55 1446h277l209 -234l-37 -38z" />
<glyph unicode="a" d="M23 340q0 109 34 207q86 252 280.5 387t463.5 135q89 0 280 -29l-239 -1040h-170l39 172q-84 -93 -173.5 -145t-199.5 -52q-102 0 -174.5 51.5t-106.5 132.5t-34 181zM209 344q0 -67 19.5 -120.5t66.5 -89.5t115 -36q163 0 335 224l142 618q-80 12 -131 12 q-168 0 -291 -92.5t-195 -253.5q-61 -138 -61 -262z" />
<glyph unicode="b" d="M-2 25l328 1421h174l-131 -563q161 186 356 186q62 0 119 -22t104 -64.5t75 -113.5t28 -160q0 -188 -102 -373.5t-263 -284.5q-76 -46 -173 -70t-191 -24q-148 0 -324 68zM186 86q78 -16 148 -16q67 0 139 22t129 62q115 82 189.5 237t74.5 301q0 107 -50.5 179.5 t-153.5 72.5q-155 0 -326 -205z" />
<glyph unicode="c" horiz-adv-x="1024" d="M39 395q0 98 28 198t81.5 188.5t125.5 158t166.5 110t196.5 40.5q76 0 143 -18.5t122 -55.5t86.5 -100t31.5 -144v-33h-64q-15 105 -94.5 167.5t-185.5 62.5q-105 0 -193 -57t-142 -146.5t-84 -192t-30 -200.5q0 -128 75.5 -209.5t201.5 -81.5q107 0 194.5 54.5 t169.5 150.5l47 -37q-160 -291 -446 -291q-57 0 -112.5 11.5t-114.5 42.5t-103 78t-72 125.5t-28 178.5z" />
<glyph unicode="d" d="M23 315q0 162 83 332q99 200 279 311t403 111q46 0 132 -8l88 385h174l-334 -1446h-174l35 152q-87 -92 -172.5 -142.5t-192.5 -50.5q-151 0 -236 101t-85 255zM213 332q0 -47 11.5 -90.5t34 -80t61 -58t88.5 -21.5q173 0 337 223l146 631q-82 12 -123 12 q-104 0 -196 -39.5t-156.5 -103.5t-111 -145t-69 -165t-22.5 -163z" />
<glyph unicode="e" horiz-adv-x="1110" d="M37 412q0 129 41 250.5t114.5 217t186.5 153t248 57.5q192 0 292.5 -108t100.5 -304q0 -58 -12 -164h-779q-6 -58 -6 -117q0 -148 71.5 -233.5t215.5 -85.5q113 0 216.5 65t178.5 166l47 -33q-81 -156 -198.5 -236.5t-286.5 -80.5q-209 0 -319.5 120t-110.5 333zM256 629 h584q4 54 4 80q0 119 -56 194.5t-170 75.5q-250 0 -362 -350z" />
<glyph unicode="f" horiz-adv-x="555" d="M10 0l215 936h-149l24 106h150q1 5 8.5 36t10 41t9.5 37t12 42t13 36.5t16.5 38.5t18.5 32q52 82 132.5 125t178.5 43q82 0 152 -25l-15 -62h-32q-121 0 -201.5 -67.5t-108.5 -192.5l-18 -84h201l-25 -106h-201l-217 -936h-174z" />
<glyph unicode="g" d="M-90 -131l55 14q43 -110 133 -165.5t213 -55.5q84 0 148 30t100.5 65.5t68 112.5t43 119.5t32.5 138.5q3 11 4 17l12 56q-88 -94 -174 -144.5t-195 -50.5q-152 0 -237.5 100.5t-85.5 255.5q0 130 51 244q96 218 287.5 340.5t431.5 122.5q76 0 284 -31l-239 -1038 q-57 -243 -184.5 -358t-335.5 -115q-170 0 -284.5 88.5t-127.5 253.5zM221 371q0 -106 48 -173t149 -67q53 0 101 17.5t91 52.5t74 67.5t70 79.5l135 590q-108 10 -129 10q-140 0 -238 -53q-133 -73 -217 -221.5t-84 -302.5z" />
<glyph unicode="h" d="M-10 0l334 1446h176l-125 -541q176 180 350 180q135 0 217 -73.5t82 -182.5q0 -51 -12 -100l-168 -729h-176l151 659q21 90 21 136q0 78 -49.5 124t-128.5 46q-43 0 -85.5 -14t-86 -43.5t-70 -51t-70.5 -59.5l-184 -797h-176z" />
<glyph unicode="i" horiz-adv-x="468" d="M-12 0l241 1042h177l-240 -1042h-178zM293 1352q0 41 29.5 70.5t70.5 29.5t71 -29.5t30 -70.5t-30 -71t-71 -30t-70.5 30t-29.5 71z" />
<glyph unicode="j" horiz-adv-x="468" d="M-266 -406q113 57 158.5 125.5t78.5 206.5l258 1116h177l-263 -1134q-38 -163 -126.5 -244.5t-270.5 -124.5zM291 1352q0 41 30.5 70.5t71.5 29.5t70 -28.5t29 -69.5q0 -42 -29 -72.5t-70 -30.5q-40 0 -71 30.5t-31 70.5z" />
<glyph unicode="k" horiz-adv-x="980" d="M-12 0l334 1446h178l-187 -807l506 403h199l-541 -432l320 -458q71 -99 133 -152h-205q-49 38 -80 80l-346 495l-133 -575h-178z" />
<glyph unicode="l" horiz-adv-x="468" d="M-8 0l334 1446h174l-334 -1446h-174z" />
<glyph unicode="m" horiz-adv-x="1792" d="M-8 0l241 1042h175l-31 -135q57 80 147 130t195 50q111 0 189.5 -57t88.5 -149q166 206 379 206q122 0 206.5 -65.5t84.5 -183.5q0 -50 -20 -144l-162 -694h-174l166 725q12 53 12 92q0 71 -49 112.5t-121 41.5q-47 0 -89.5 -13t-85 -43t-66.5 -51t-70 -65l-185 -799 h-172l160 694q16 74 16 119q0 39 -14.5 68.5t-34.5 45t-46 25.5t-45 12.5t-36 2.5q-81 0 -152.5 -45.5t-148.5 -122.5l-184 -799h-174z" />
<glyph unicode="n" d="M-10 0l241 1042h175l-31 -137q169 180 350 180q122 0 208.5 -73.5t86.5 -192.5q0 -51 -25 -157l-151 -662h-176l155 672q19 89 19 116q0 39 -16 76.5t-58 67t-102 29.5q-137 0 -318 -164l-182 -797h-176z" />
<glyph unicode="o" horiz-adv-x="1236" d="M33 408q0 85 21.5 179t58.5 169q163 331 549 331q218 0 341 -118.5t123 -333.5q0 -123 -45 -250q-69 -207 -219 -316.5t-368 -109.5q-215 0 -338 118.5t-123 330.5zM219 383q0 -149 75.5 -238.5t223.5 -89.5q82 0 152.5 39t118.5 103t82.5 145t50.5 164t16 162 q0 145 -70 234t-217 89q-88 0 -161.5 -39.5t-122.5 -103.5t-83.5 -145t-49.5 -162t-15 -158z" />
<glyph unicode="p" d="M-113 -442l342 1484h174l-32 -147q167 190 362 190q152 0 237 -99t85 -255q0 -79 -20 -164.5t-58 -171t-98.5 -161.5t-136.5 -135t-178 -93.5t-216 -34.5q-79 0 -186 21l-101 -434h-174zM188 104q75 -14 129 -14q146 0 261 72q124 79 206 233.5t82 304.5q0 68 -19 124 t-65.5 95t-115.5 39q-86 0 -175 -58.5t-155 -149.5z" />
<glyph unicode="q" d="M14 319q0 130 62 279q95 232 286 351.5t449 119.5q111 0 274 -29l-344 -1482h-174l138 596q-161 -197 -369 -197q-152 0 -237 103t-85 259zM205 328q0 -104 52 -177t151 -73q40 0 80.5 13.5t70.5 32t61 46t49.5 48t39.5 45.5t28 32l150 645q-75 10 -133 10 q-186 0 -318 -112q-96 -81 -163.5 -232t-67.5 -278z" />
<glyph unicode="r" horiz-adv-x="681" d="M-10 0l239 1042h174l-36 -159q175 186 352 186q35 0 72 -6l-37 -160q-66 17 -115 17q-88 0 -154.5 -38t-144.5 -112l-178 -770h-172z" />
<glyph unicode="s" horiz-adv-x="937" d="M-61 293l57 12q24 -65 62.5 -111.5t84.5 -70t90 -33.5t91 -10q60 0 106.5 16t71 38t39.5 51t19.5 50.5t4.5 40.5q0 65 -41.5 106t-140.5 89q-48 23 -78 39.5t-71 46t-65 59t-41 73t-17 93.5q0 52 21 103t63 96t115 72.5t167 27.5q160 0 258 -74.5t105 -218.5l-60 -10 q-67 189 -286 189q-107 0 -158 -51t-51 -115q0 -71 51.5 -114.5t159.5 -90.5q108 -48 178.5 -124.5t70.5 -184.5q0 -141 -109.5 -233.5t-297.5 -92.5q-82 0 -150 19t-121.5 58t-87 104t-40.5 151z" />
<glyph unicode="t" horiz-adv-x="555" d="M43 168q0 62 23 164l141 604h-154l25 106h153l68 293h174l-70 -293h201l-24 -106h-201l-146 -633q-18 -83 -18 -113q0 -53 32 -83.5t87 -30.5q56 0 121 45l34 -51q-117 -93 -229 -93q-95 0 -156 48.5t-61 142.5z" />
<glyph unicode="u" d="M53 260q0 44 27 172l139 610h176l-141 -614q-25 -117 -25 -154q0 -83 52.5 -127.5t134.5 -44.5q89 0 168.5 55.5t158.5 143.5l172 741h172l-241 -1042h-172l39 168q-82 -98 -159 -144.5t-192 -46.5q-132 0 -220.5 76t-88.5 207z" />
<glyph unicode="v" horiz-adv-x="980" d="M49 1042h182l146 -751l502 751h151l-704 -1052h-56z" />
<glyph unicode="w" horiz-adv-x="1492" d="M59 1042h174l91 -735l452 735h53l148 -735l422 735h149l-622 -1054h-54l-145 731l-471 -731h-47z" />
<glyph unicode="x" horiz-adv-x="980" d="M-182 0l559 553l-238 489h189l176 -364l368 364h177l-490 -489l268 -553h-186l-207 430l-432 -430h-184z" />
<glyph unicode="y" horiz-adv-x="937" d="M-240 -369q74 7 139 38t116.5 81t86.5 96t72 105l82 133l-188 958h176l139 -772l483 772h158l-737 -1153q-70 -109 -122.5 -166t-127.5 -96q-106 -55 -273 -55z" />
<glyph unicode="z" horiz-adv-x="937" d="M-135 0l12 55l797 877h-563l26 110h824l-11 -47l-800 -878h641l-25 -117h-901z" />
<glyph unicode="{" horiz-adv-x="526" d="M37 709l12 51q49 9 75.5 17.5t53 29.5t42.5 57.5t30 96.5l51 219q19 80 44 128.5t73.5 85t124.5 51.5t192 15l-10 -49q-74 -14 -112.5 -26.5t-66.5 -40.5t-40 -61.5t-29 -104.5l-53 -222q-24 -102 -66.5 -152t-142.5 -83q57 -22 82 -59t25 -97q0 -31 -11 -84l-41 -184 q-20 -98 -20 -129q0 -62 34 -92t117 -39l-12 -49h-31q-161 0 -222.5 46t-61.5 132q0 42 18 127l47 196q13 50 13 91q0 57 -24 83.5t-91 45.5z" />
<glyph unicode="|" horiz-adv-x="481" d="M-18 -82l370 1606h174l-368 -1606h-176z" />
<glyph unicode="}" horiz-adv-x="526" d="M-199 -12l11 49q71 13 111 27t67.5 43t40.5 63t28 100l52 222q24 101 67.5 151.5t143.5 83.5q-57 22 -83 59t-26 97q0 36 10 84l43 184q19 78 19 129q0 62 -33.5 92t-116.5 39l12 49h31q84 0 141.5 -13t88 -38t43 -55.5t12.5 -71.5q0 -53 -19 -127l-47 -197 q-12 -52 -12 -90q0 -57 24 -83.5t91 -45.5l-13 -51q-96 -15 -135 -53.5t-65 -147.5l-51 -219q-15 -63 -33.5 -106t-50 -78t-78 -55t-113.5 -30.5t-160 -10.5z" />
<glyph unicode="~" horiz-adv-x="1482" d="M111 586q106 113 192 165t176 52q59 0 110.5 -17t123.5 -55l114 -59q66 -34 93 -44t57 -10q114 0 283 156l81 -121q-121 -110 -208.5 -161.5t-169.5 -51.5q-101 0 -244 82l-64 37q-112 64 -194 64q-62 0 -113 -30.5t-155 -125.5z" />
<glyph unicode="&#xa1;" horiz-adv-x="555" d="M-14 0l69 309q91 412 236 738h49q0 -166 -24 -330t-83 -418l-67 -299h-180zM287 1366q0 43 30.5 73.5t73.5 30.5t73 -30.5t30 -73.5q0 -42 -30.5 -73t-72.5 -31q-46 0 -75 30t-29 74z" />
<glyph unicode="&#xa2;" horiz-adv-x="1024" d="M41 410q0 114 38.5 233t114 222t173.5 157q106 59 270 59l39 164h72l-41 -172q133 -24 198.5 -112.5t65.5 -227.5l-60 -2q-21 98 -76 156.5t-153 79.5l-207 -881q10 -2 33 -2q108 0 199.5 70.5t158.5 177.5l49 -31q-59 -151 -171 -244.5t-263 -93.5q-25 0 -35 2l-40 -168 h-70l41 174q-88 16 -154.5 58.5t-105.5 103t-57.5 130t-18.5 147.5zM231 424q0 -254 177 -324l202 869q-92 -9 -166.5 -63.5t-119.5 -134.5t-69 -170t-24 -177z" />
<glyph unicode="&#xa3;" horiz-adv-x="1193" d="M29 618l24 109h279v33q0 158 30 282t91 216t161.5 141t235.5 49q70 0 130 -18.5t110 -56t79 -103t29 -152.5v-12l-61 -2q-7 103 -83.5 164t-185.5 61q-54 0 -99 -14t-78 -36.5t-59.5 -57.5t-44 -71t-30 -83t-19 -87t-10.5 -90t-5 -84.5t-1 -78.5h334l-25 -109h-319 q-17 -161 -72.5 -280t-181.5 -207h885l-84 -131h-471q-313 0 -471 -4l-31 57q100 82 165 234t77 331h-299z" />
<glyph unicode="&#xa4;" horiz-adv-x="1380" d="M82 262l166 141q-49 77 -68.5 142.5t-19.5 146.5q0 103 29.5 182.5t99.5 163.5l-142 162l115 100l141 -159q76 46 143 66t150 20q102 0 181.5 -29.5t166.5 -99.5l158 141l101 -115l-164 -141q49 -84 68.5 -148t19.5 -141q0 -100 -31 -182.5t-100 -165.5l143 -166 l-117 -100l-143 166q-84 -51 -143.5 -68.5t-141.5 -17.5q-104 0 -185.5 30t-164.5 99l-162 -142zM313 692q0 -166 111 -277.5t278 -111.5q153 0 261 111t108 284q0 164 -108 273.5t-269 109.5q-163 0 -272 -111.5t-109 -277.5z" />
<glyph unicode="&#xa5;" d="M-131 -125l4 74q123 3 205.5 34t177.5 111q94 82 127 137l-18 105h-385l28 123h334l-31 168h-262l27 121h215l-121 661h178l178 -969l604 969h177l-422 -661h215l-27 -121h-264l-107 -168h332l-28 -123h-381l-95 -137q-39 -56 -77 -100.5t-90 -88.5t-108 -73.5 t-129 -47.5t-155 -18q-40 0 -102 4z" />
<glyph unicode="&#xa6;" horiz-adv-x="481" d="M-18 -82l157 682h174l-155 -682h-176zM197 844l155 680h174l-153 -680h-176z" />
<glyph unicode="&#xa7;" horiz-adv-x="1024" d="M-59 -51h57q12 -67 27 -94q37 -67 109 -104.5t153 -37.5q99 0 168 60t69 157q0 48 -26 87t-67 68.5t-91 57.5t-100.5 61t-91.5 71.5t-67 97t-26 129.5q0 80 30 146.5t82.5 113t119 77.5t143.5 44q-82 66 -124 126.5t-42 147.5q0 100 56 177.5t142.5 117t184.5 39.5 q156 0 256.5 -86t100.5 -238v-30h-54q-22 111 -96 174t-186 63q-91 0 -160.5 -55t-69.5 -145q0 -47 19.5 -85t55.5 -67t70 -50t82.5 -46.5t73.5 -42.5q181 -125 181 -301q0 -145 -104.5 -246.5t-258.5 -134.5q143 -113 143 -262q0 -103 -59.5 -183t-149.5 -119.5t-192 -39.5 q-162 0 -260 92t-98 250v10zM225 526q0 -47 15.5 -85.5t48 -69.5t61 -51t74.5 -46q95 10 157 40t113 102q20 28 33.5 67t13.5 72q0 87 -47.5 143.5t-136.5 106.5q-84 -3 -157.5 -33.5t-124 -95t-50.5 -150.5z" />
<glyph unicode="&#xa8;" horiz-adv-x="598" d="M16 1313q0 42 30.5 73t72.5 31q41 0 72.5 -31.5t31.5 -72.5q0 -43 -30.5 -74t-73.5 -31t-73 31t-30 74zM373 1313q0 43 30.5 73.5t73.5 30.5q41 0 72 -31.5t31 -72.5q0 -42 -30.5 -73.5t-72.5 -31.5q-43 0 -73.5 31t-30.5 74z" />
<glyph unicode="&#xa9;" horiz-adv-x="1597" d="M84 727q0 120 36 231t103 200t156 155.5t201 102.5t233 36q200 0 367 -96t263.5 -262.5t96.5 -364.5q0 -152 -57.5 -288.5t-155.5 -234t-233 -155t-285 -57.5t-284.5 57.5t-231 155t-153 233.5t-56.5 287zM154 721q0 -135 51.5 -256.5t139.5 -209.5t210 -140t256 -52 q178 0 329 88t238.5 239t87.5 329q0 184 -86 336t-236 239.5t-331 87.5q-136 0 -258 -52t-210 -140t-139.5 -210.5t-51.5 -258.5zM379 625q0 149 70.5 277.5t191.5 204t262 75.5q142 0 229 -71.5t87 -188.5v-23h-56q-51 184 -245 184q-111 0 -198.5 -73t-131 -179 t-43.5 -219q0 -114 64.5 -180.5t174.5 -66.5q159 0 303 163l41 -28q-138 -238 -383 -238q-163 0 -264.5 101t-101.5 262z" />
<glyph unicode="&#xaa;" horiz-adv-x="724" d="M129 989q0 85 39 178q61 144 180.5 218.5t278.5 74.5q110 0 186 -18l-156 -670h-118l20 94q-103 -110 -223 -110q-97 0 -152 66.5t-55 166.5zM258 995q0 -64 31 -106.5t92 -42.5q100 0 207 137l88 385q-37 6 -86 6q-77 0 -142.5 -38.5t-105.5 -97t-62 -122.5t-22 -121z " />
<glyph unicode="&#xab;" horiz-adv-x="724" d="M29 567l239 209h146l-252 -221l213 -256h-125zM287 541l276 235h148l-289 -246l194 -231h-129z" />
<glyph unicode="&#xac;" horiz-adv-x="1482" d="M104 539l37 155h1157l-151 -682h-184l116 527h-975z" />
<glyph unicode="&#xad;" horiz-adv-x="641" d="M8 481l23 101h530l-22 -101h-531z" />
<glyph unicode="&#xae;" horiz-adv-x="1597" d="M84 727q0 120 36 231t103 200t156 155.5t201 102.5t233 36q200 0 367 -96t263.5 -262.5t96.5 -364.5q0 -152 -57.5 -288.5t-155.5 -234t-233 -155t-285 -57.5t-284.5 57.5t-231 155t-153 233.5t-56.5 287zM154 721q0 -135 51.5 -256.5t139.5 -209.5t210 -140t256 -52 q178 0 329 88t238.5 239t87.5 329q0 184 -86 336t-236 239.5t-331 87.5q-136 0 -258 -52t-210 -140t-139.5 -210.5t-51.5 -258.5zM420 293l203 868h266q148 0 225.5 -51t77.5 -149q0 -201 -248 -263l189 -405h-162l-166 383q-39 -4 -80 -4q-54 0 -66 2l-86 -381h-153z M680 748q24 -3 35 -3q149 0 233 52.5t84 144.5q0 65 -39.5 95t-126.5 30h-112z" />
<glyph unicode="&#xaf;" horiz-adv-x="598" d="M-43 1284l25 111h659l-27 -111h-657z" />
<glyph unicode="&#xb0;" horiz-adv-x="724" d="M158 1231q0 125 88 213t213 88q126 0 213.5 -88t87.5 -213t-88 -213t-213 -88t-213 88t-88 213zM281 1231q0 -73 52.5 -125.5t125.5 -52.5t125.5 52.5t52.5 125.5t-52.5 125.5t-125.5 52.5t-125.5 -52.5t-52.5 -125.5z" />
<glyph unicode="&#xb1;" horiz-adv-x="1482" d="M47 0l37 160h1100l-37 -160h-1100zM215 729l35 154h459l102 446h180l-102 -446h461l-37 -154h-459l-104 -450h-179l103 450h-459z" />
<glyph unicode="&#xb2;" horiz-adv-x="811" d="M35 502l14 61l432 365q45 38 70.5 62t58 61t47.5 73t15 74q0 65 -48.5 100t-115.5 35q-87 0 -145 -41t-119 -123l-49 25q99 242 335 242q70 0 125 -21t87 -55.5t48.5 -74.5t16.5 -81q0 -165 -244 -358l-305 -244h473l-22 -100h-674z" />
<glyph unicode="&#xb3;" horiz-adv-x="811" d="M78 723l47 10q30 -84 90 -121t152 -37q53 0 95 13.5t67 34.5t41.5 48.5t23 52t6.5 48.5q0 72 -52 118t-136 46h-60l21 94h28q43 0 85.5 8t85.5 25.5t69.5 53.5t26.5 85q0 45 -39 89t-121 44q-150 0 -260 -164l-45 25q49 116 127 178t198 62q71 0 125 -22t83.5 -57t44 -73 t14.5 -76q0 -88 -56.5 -147t-146.5 -82q151 -64 151 -211q0 -50 -19.5 -99t-59.5 -94t-112.5 -72.5t-168.5 -27.5q-133 0 -213 60t-92 188z" />
<glyph unicode="&#xb4;" horiz-adv-x="598" d="M49 1208l221 238h279l-465 -279z" />
<glyph unicode="&#xb5;" d="M-123 -442l342 1484h176l-141 -614q-25 -106 -25 -152q0 -83 51.5 -128.5t135.5 -45.5q48 0 95 17t89 48.5t74 61.5t69 72l172 741h172l-241 -1042h-172l39 168q-80 -96 -156 -143.5t-186 -47.5q-145 0 -193 127l-125 -546h-176z" />
<glyph unicode="&#xb6;" horiz-adv-x="1314" d="M252 1006q0 104 47 195t131 153q69 53 150 72.5t229 19.5h461l-25 -109h-69l-385 -1679h-115l385 1679h-297l-385 -1679h-119l232 1006q-114 37 -177 126.5t-63 215.5z" />
<glyph unicode="&#xb7;" horiz-adv-x="468" d="M102 555q0 44 30.5 74t74.5 30q47 0 76.5 -29.5t29.5 -76.5q0 -46 -29 -75t-75 -29t-76.5 30t-30.5 76z" />
<glyph unicode="&#xb8;" horiz-adv-x="598" d="M74 -403l18 65q86 -22 137 -22q56 0 96 23t40 75q0 21 -8.5 36.5t-19 24t-30.5 15t-32 9t-35 5.5l45 201h110l-26 -119q153 -29 153 -154q0 -27 -12 -57t-38.5 -62t-80.5 -52.5t-127 -20.5q-60 0 -190 33z" />
<glyph unicode="&#xb9;" horiz-adv-x="811" d="M270 1206l326 203h63l-206 -907h-134l168 725l-196 -60z" />
<glyph unicode="&#xba;" horiz-adv-x="811" d="M150 1036q0 41 8 89t34.5 112.5t68 114.5t117.5 85.5t175 35.5q141 0 221 -76.5t80 -216.5q0 -26 -4 -57t-16 -74.5t-30.5 -84t-50.5 -81t-73 -70.5t-101.5 -49t-132.5 -19q-139 0 -217.5 77t-78.5 214zM279 1020q0 -93 45.5 -147t134.5 -54q64 0 114 34t76.5 80.5 t44 104t22.5 95.5t5 63q0 203 -176 203q-67 0 -120.5 -36.5t-84 -94.5t-46 -121.5t-15.5 -126.5z" />
<glyph unicode="&#xbb;" horiz-adv-x="724" d="M-37 299l293 246l-186 227h120l201 -240l-280 -233h-148zM254 299l262 219l-213 254h123l225 -260l-256 -213h-141z" />
<glyph unicode="&#xbc;" horiz-adv-x="1878" d="M186 1206l326 203h63l-206 -907h-133l167 725l-196 -60zM362 0l791 1409h123l-791 -1409h-123zM936 233l14 56l545 618h158l-131 -579h127l-23 -95h-125l-53 -233h-123l53 233h-442zM1120 328h279l98 432z" />
<glyph unicode="&#xbd;" horiz-adv-x="1878" d="M199 1206l325 203h64l-209 -907h-131l168 725l-197 -60zM332 0l790 1409h123l-788 -1409h-125zM913 0l15 61l432 365q44 38 70 62t58 60.5t47 73t15 74.5q0 65 -48.5 100t-115.5 35q-87 0 -145 -40.5t-119 -122.5l-49 24q99 242 336 242q70 0 124.5 -21t86 -55.5 t47.5 -74t16 -81.5q0 -52 -21 -103.5t-59.5 -98t-76.5 -82.5t-86 -74l-303 -244h473l-23 -100h-674z" />
<glyph unicode="&#xbe;" horiz-adv-x="1878" d="M78 723l47 10q30 -84 90 -121t152 -37q53 0 95 13.5t67 34.5t41.5 48.5t23 52t6.5 48.5q0 72 -52 118t-136 46h-60l21 94h28q43 0 85.5 8t85.5 25.5t69.5 53.5t26.5 85q0 45 -39 89t-121 44q-150 0 -260 -164l-45 25q49 116 127 178t198 62q71 0 125 -22t83.5 -57t44 -73 t14.5 -76q0 -88 -56.5 -147t-146.5 -82q151 -64 151 -211q0 -50 -19.5 -99t-59.5 -94t-112.5 -72.5t-168.5 -27.5q-133 0 -213 60t-92 188zM514 0l793 1409h123l-791 -1409h-125zM1020 233l14 56l545 618h158l-131 -579h127l-23 -95h-125l-53 -233h-123l53 233h-442z M1204 328h279l98 432z" />
<glyph unicode="&#xbf;" horiz-adv-x="1024" d="M10 274q0 99 53 183q33 55 92 102t114 75t121 69t106 81q55 55 83.5 114t53.5 151h55v-27q0 -134 -37.5 -232t-128.5 -176q-21 -18 -64 -43t-79.5 -45t-75.5 -53.5t-61 -69.5q-35 -61 -35 -124q0 -89 61.5 -144t151.5 -55q105 0 192 62.5t152 162.5l49 -22 q-57 -160 -156.5 -242t-263.5 -82q-74 0 -141.5 19.5t-122 57.5t-87 99.5t-32.5 138.5zM631 1366q0 43 29.5 73.5t72.5 30.5t74 -30.5t31 -73.5t-31 -73.5t-74 -30.5t-72.5 30.5t-29.5 73.5z" />
<glyph unicode="&#xc0;" horiz-adv-x="1280" d="M-160 0l940 1446h58l288 -1446h-184l-80 420h-579l-265 -420h-178zM356 537h486l-113 583zM463 1827h276l209 -236l-37 -39z" />
<glyph unicode="&#xc1;" horiz-adv-x="1280" d="M-160 0l940 1446h58l288 -1446h-184l-80 420h-579l-265 -420h-178zM356 537h486l-113 583zM770 1589l221 238h279l-465 -279z" />
<glyph unicode="&#xc2;" horiz-adv-x="1280" d="M-160 0l940 1446h58l288 -1446h-184l-80 420h-579l-265 -420h-178zM356 537h486l-113 583zM563 1595l262 232h138l167 -236l-34 -39l-222 166l-280 -166z" />
<glyph unicode="&#xc3;" horiz-adv-x="1280" d="M-160 0l940 1446h58l288 -1446h-184l-80 420h-579l-265 -420h-178zM356 537h486l-113 583zM549 1640q42 72 85 106t116 34q61 0 153 -29t119 -29q59 0 123 54l45 -39q-49 -73 -91.5 -105.5t-117.5 -32.5q-48 0 -138 28t-132 28q-59 0 -119 -47z" />
<glyph unicode="&#xc4;" horiz-adv-x="1280" d="M-160 0l940 1446h58l288 -1446h-184l-80 420h-579l-265 -420h-178zM356 537h486l-113 583zM584 1700q0 42 30 73t72 31q41 0 73 -31.5t32 -72.5q0 -43 -31 -74t-74 -31q-42 0 -72 31t-30 74zM940 1700q0 43 30.5 73.5t73.5 30.5q41 0 72 -31.5t31 -72.5 q0 -42 -30.5 -73.5t-72.5 -31.5q-43 0 -73.5 31t-30.5 74z" />
<glyph unicode="&#xc5;" horiz-adv-x="1280" d="M-160 0l940 1446h58l288 -1446h-184l-80 420h-579l-265 -420h-178zM356 537h486l-113 583zM698 1696q0 66 47 112.5t113 46.5t113 -46.5t47 -112.5t-47 -113t-113 -47t-113 47t-47 113zM762 1696q0 -38 29 -67.5t67 -29.5t67 29.5t29 67.5q0 39 -28.5 66.5t-67.5 27.5 t-67.5 -27.5t-28.5 -66.5z" />
<glyph unicode="&#xc6;" horiz-adv-x="1961" d="M-172 0l1204 1446h981l-26 -117h-687l-114 -502h618l-28 -122h-619l-135 -584h774l-27 -121h-954l96 414h-542l-340 -414h-201zM467 532h471l184 799z" />
<glyph unicode="&#xc7;" horiz-adv-x="1366" d="M74 602q0 71 12.5 149t41 165t71 168t107 155.5t144 129.5t187.5 87.5t231 32.5q96 0 178.5 -21t153.5 -64.5t123.5 -118t79.5 -175.5l-72 -25q-63 131 -182.5 200t-263.5 69q-114 0 -214 -43.5t-171.5 -117.5t-123 -170t-77 -201.5t-25.5 -211.5q0 -147 54 -261.5 t162.5 -181.5t257.5 -67q153 0 266 61.5t211 186.5l53 -31q-93 -188 -231.5 -272t-337.5 -84q-51 0 -78 4l-15 -69q66 -15 109 -52.5t43 -99.5q0 -71 -45 -121.5t-107 -72t-131 -21.5q-56 0 -99.5 10.5t-111.5 34.5l35 76q88 -31 142 -31q53 0 97 27t44 78q0 43 -35.5 66 t-83.5 28l39 168q-192 36 -315 205t-123 411z" />
<glyph unicode="&#xc8;" d="M2 0l334 1446h866l-26 -119h-680l-117 -502h616l-28 -120h-615l-135 -582h774l-28 -123h-961zM399 1827h277l209 -236l-37 -39z" />
<glyph unicode="&#xc9;" d="M2 0l334 1446h866l-26 -119h-680l-117 -502h616l-28 -120h-615l-135 -582h774l-28 -123h-961zM707 1589l221 238h278l-465 -279z" />
<glyph unicode="&#xca;" d="M2 0l334 1446h866l-26 -119h-680l-117 -502h616l-28 -120h-615l-135 -582h774l-28 -123h-961zM500 1595l262 232h137l168 -236l-35 -39l-221 166l-281 -166z" />
<glyph unicode="&#xcb;" d="M2 0l334 1446h866l-26 -119h-680l-117 -502h616l-28 -120h-615l-135 -582h774l-28 -123h-961zM526 1700q0 42 30.5 73t72.5 31q41 0 72.5 -31.5t31.5 -72.5q0 -43 -30.5 -74t-73.5 -31t-73 31t-30 74zM883 1700q0 43 30.5 73.5t73.5 30.5q41 0 72 -31.5t31 -72.5 q0 -42 -30.5 -73.5t-72.5 -31.5q-43 0 -73.5 31t-30.5 74z" />
<glyph unicode="&#xcc;" horiz-adv-x="512" d="M4 0l334 1446h188l-333 -1446h-189zM80 1827h276l209 -236l-37 -39z" />
<glyph unicode="&#xcd;" horiz-adv-x="512" d="M4 0l334 1446h188l-333 -1446h-189zM387 1589l221 238h279l-465 -279z" />
<glyph unicode="&#xce;" horiz-adv-x="512" d="M4 0l334 1446h188l-333 -1446h-189zM180 1595l262 232h138l168 -236l-35 -39l-221 166l-281 -166z" />
<glyph unicode="&#xcf;" horiz-adv-x="512" d="M4 0l334 1446h188l-333 -1446h-189zM207 1700q0 42 30 73t72 31q41 0 73 -31.5t32 -72.5q0 -43 -31 -74t-74 -31q-42 0 -72 31t-30 74zM563 1700q0 43 31 73.5t74 30.5q41 0 71.5 -31.5t30.5 -72.5q0 -42 -30 -73.5t-72 -31.5q-43 0 -74 31t-31 74z" />
<glyph unicode="&#xd0;" horiz-adv-x="1449" d="M2 0l164 713h-162l25 98h159l148 635h311q88 0 158.5 -6t147.5 -24.5t137.5 -49.5t118.5 -84t102 -125q84 -141 84 -330q0 -259 -150.5 -476t-392.5 -300q-150 -51 -383 -51h-467zM217 121h289q195 0 350 87t246 255q102 189 102 377q0 184 -88 301q-83 111 -200 149.5 t-293 38.5h-127l-119 -518h379l-25 -98h-379z" />
<glyph unicode="&#xd1;" horiz-adv-x="1492" d="M2 0l334 1446h158l602 -1114l254 1114h159l-340 -1471h-73l-660 1223l-276 -1198h-158zM655 1640q42 72 85 106t116 34q61 0 153 -29t119 -29q59 0 123 54l45 -39q-49 -73 -91.5 -105.5t-117.5 -32.5q-48 0 -138 28t-132 28q-59 0 -119 -47z" />
<glyph unicode="&#xd2;" horiz-adv-x="1579" d="M76 582q0 178 56 341.5t157 290t255.5 202t338.5 75.5q295 0 466 -172.5t171 -466.5q0 -132 -33.5 -260.5t-101.5 -242.5t-162.5 -201t-225.5 -138t-282 -51q-290 0 -464.5 167t-174.5 456zM283 573q0 -224 112.5 -361.5t329.5 -137.5q118 0 218 51t167.5 133.5 t114.5 189.5t68.5 217t21.5 218q0 106 -27.5 195.5t-81 156.5t-138 105t-191.5 38q-119 0 -219.5 -51t-168 -133.5t-115.5 -189t-69.5 -216t-21.5 -215.5zM549 1827h276l209 -236l-37 -39z" />
<glyph unicode="&#xd3;" horiz-adv-x="1579" d="M76 582q0 178 56 341.5t157 290t255.5 202t338.5 75.5q295 0 466 -172.5t171 -466.5q0 -132 -33.5 -260.5t-101.5 -242.5t-162.5 -201t-225.5 -138t-282 -51q-290 0 -464.5 167t-174.5 456zM283 573q0 -224 112.5 -361.5t329.5 -137.5q118 0 218 51t167.5 133.5 t114.5 189.5t68.5 217t21.5 218q0 106 -27.5 195.5t-81 156.5t-138 105t-191.5 38q-119 0 -219.5 -51t-168 -133.5t-115.5 -189t-69.5 -216t-21.5 -215.5zM856 1589l221 238h279l-465 -279z" />
<glyph unicode="&#xd4;" horiz-adv-x="1579" d="M76 582q0 178 56 341.5t157 290t255.5 202t338.5 75.5q295 0 466 -172.5t171 -466.5q0 -132 -33.5 -260.5t-101.5 -242.5t-162.5 -201t-225.5 -138t-282 -51q-290 0 -464.5 167t-174.5 456zM283 573q0 -224 112.5 -361.5t329.5 -137.5q118 0 218 51t167.5 133.5 t114.5 189.5t68.5 217t21.5 218q0 106 -27.5 195.5t-81 156.5t-138 105t-191.5 38q-119 0 -219.5 -51t-168 -133.5t-115.5 -189t-69.5 -216t-21.5 -215.5zM649 1595l262 232h138l168 -236l-35 -39l-221 166l-281 -166z" />
<glyph unicode="&#xd5;" horiz-adv-x="1579" d="M76 582q0 178 56 341.5t157 290t255.5 202t338.5 75.5q295 0 466 -172.5t171 -466.5q0 -132 -33.5 -260.5t-101.5 -242.5t-162.5 -201t-225.5 -138t-282 -51q-290 0 -464.5 167t-174.5 456zM283 573q0 -224 112.5 -361.5t329.5 -137.5q118 0 218 51t167.5 133.5 t114.5 189.5t68.5 217t21.5 218q0 106 -27.5 195.5t-81 156.5t-138 105t-191.5 38q-119 0 -219.5 -51t-168 -133.5t-115.5 -189t-69.5 -216t-21.5 -215.5zM635 1640q42 72 85 106t116 34q61 0 153 -29t119 -29q59 0 123 54l45 -39q-49 -73 -91.5 -105.5t-117.5 -32.5 q-48 0 -138 28t-132 28q-59 0 -119 -47z" />
<glyph unicode="&#xd6;" horiz-adv-x="1579" d="M76 582q0 178 56 341.5t157 290t255.5 202t338.5 75.5q295 0 466 -172.5t171 -466.5q0 -132 -33.5 -260.5t-101.5 -242.5t-162.5 -201t-225.5 -138t-282 -51q-290 0 -464.5 167t-174.5 456zM283 573q0 -224 112.5 -361.5t329.5 -137.5q118 0 218 51t167.5 133.5 t114.5 189.5t68.5 217t21.5 218q0 106 -27.5 195.5t-81 156.5t-138 105t-191.5 38q-119 0 -219.5 -51t-168 -133.5t-115.5 -189t-69.5 -216t-21.5 -215.5zM668 1700q0 42 30 73t72 31q41 0 72.5 -31.5t31.5 -72.5q0 -43 -30.5 -74t-73.5 -31q-42 0 -72 31t-30 74zM1024 1700 q0 43 30.5 73.5t73.5 30.5q41 0 72 -31.5t31 -72.5q0 -42 -30.5 -73.5t-72.5 -31.5q-43 0 -73.5 31t-30.5 74z" />
<glyph unicode="&#xd7;" horiz-adv-x="1482" d="M193 279l409 333l-293 365l140 115l292 -365l414 336l96 -117l-413 -338l295 -366l-140 -115l-295 367l-407 -334z" />
<glyph unicode="&#xd8;" horiz-adv-x="1579" d="M-27 51l199 172q-96 168 -96 365q0 203 88 411q101 235 286 363.5t435 128.5q154 0 287 -54.5t221 -168.5l182 157l51 -61l-190 -164q82 -147 82 -344q0 -123 -31.5 -248t-98.5 -242.5t-160 -208t-226.5 -145.5t-288.5 -55q-143 0 -276 50.5t-218 150.5l-194 -168z M268 551q0 -66 8 -110.5t31 -102.5l965 829q-55 108 -162.5 163.5t-235.5 55.5q-125 0 -228.5 -52t-172 -136.5t-116 -195t-68.5 -224t-21 -227.5zM340 260q73 -100 166.5 -146t222.5 -46q119 0 220.5 51.5t170 136t117 192.5t70.5 220t22 221q0 101 -26 196z" />
<glyph unicode="&#xd9;" horiz-adv-x="1409" d="M94 369q0 105 31 239l194 838h189l-197 -846q-37 -159 -37 -221q0 -125 77.5 -196.5t203.5 -71.5q209 0 426 229l254 1106h184l-334 -1446h-184l49 209q-188 -236 -436 -236q-182 0 -301 108t-119 288zM506 1827h276l209 -236l-37 -39z" />
<glyph unicode="&#xda;" horiz-adv-x="1409" d="M94 369q0 105 31 239l194 838h189l-197 -846q-37 -159 -37 -221q0 -125 77.5 -196.5t203.5 -71.5q209 0 426 229l254 1106h184l-334 -1446h-184l49 209q-188 -236 -436 -236q-182 0 -301 108t-119 288zM815 1589l221 238h279l-465 -279z" />
<glyph unicode="&#xdb;" horiz-adv-x="1409" d="M94 369q0 105 31 239l194 838h189l-197 -846q-37 -159 -37 -221q0 -125 77.5 -196.5t203.5 -71.5q209 0 426 229l254 1106h184l-334 -1446h-184l49 209q-188 -236 -436 -236q-182 0 -301 108t-119 288zM606 1595l262 232h138l168 -236l-35 -39l-221 166l-281 -166z" />
<glyph unicode="&#xdc;" horiz-adv-x="1409" d="M94 369q0 105 31 239l194 838h189l-197 -846q-37 -159 -37 -221q0 -125 77.5 -196.5t203.5 -71.5q209 0 426 229l254 1106h184l-334 -1446h-184l49 209q-188 -236 -436 -236q-182 0 -301 108t-119 288zM621 1700q0 42 30 73t72 31q41 0 72.5 -31.5t31.5 -72.5 q0 -43 -30.5 -74t-73.5 -31q-42 0 -72 31t-30 74zM977 1700q0 43 30.5 73.5t73.5 30.5q41 0 72 -31.5t31 -72.5q0 -42 -30.5 -73.5t-72.5 -31.5q-43 0 -73.5 31t-30.5 74z" />
<glyph unicode="&#xdd;" horiz-adv-x="1193" d="M-233 -428l4 74h22q342 0 602 458l-243 1342h178l205 -1133l710 1133h174l-891 -1403q-43 -68 -73.5 -112.5t-73 -99t-79 -89.5t-86 -71.5t-99.5 -56.5t-113.5 -33t-134.5 -13q-40 0 -102 4zM707 1589l221 238h278l-465 -279z" />
<glyph unicode="&#xde;" d="M2 0l336 1446h186l-69 -301h204q57 0 97.5 -2t95.5 -12t95 -28.5t79.5 -53t65.5 -82.5q41 -75 41 -170q0 -108 -56 -197q-42 -71 -108.5 -123.5t-145.5 -81t-159.5 -42t-165.5 -13.5q-96 0 -224 22l-84 -362h-188zM291 438q27 -2 78 -2q77 0 142.5 7.5t136.5 27t130 59.5 t99 99q57 83 57 176q0 79 -49 137q-46 54 -102 72t-138 18h-215z" />
<glyph unicode="&#xdf;" horiz-adv-x="1193" d="M-10 0l215 934q13 57 21 89t23 81.5t29 79.5t36.5 70t48 68t61 57t78.5 53q111 61 254 61q69 0 132 -17t116 -50t84.5 -90t31.5 -130q0 -69 -23.5 -127t-60.5 -98.5t-89 -73t-101.5 -52t-106.5 -34.5q132 -76 212.5 -200.5t80.5 -270.5q0 -169 -107 -281t-276 -112 q-103 0 -190.5 48.5t-141.5 135.5l50 43q109 -118 233 -118q76 0 136.5 46.5t91 115.5t30.5 143q0 132 -76 241t-202 207l14 53q64 14 123 39.5t112 64.5t85 96.5t32 125.5q0 86 -57.5 135t-145.5 49q-64 0 -116.5 -22t-89.5 -62t-65 -88t-47.5 -106.5t-33.5 -111.5 t-27 -109q-1 -7 -2 -11l-200 -872h-172z" />
<glyph unicode="&#xe0;" d="M23 340q0 109 34 207q86 252 280.5 387t463.5 135q89 0 280 -29l-239 -1040h-170l39 172q-84 -93 -173.5 -145t-199.5 -52q-102 0 -174.5 51.5t-106.5 132.5t-34 181zM209 344q0 -67 19.5 -120.5t66.5 -89.5t115 -36q163 0 335 224l142 618q-80 12 -131 12 q-168 0 -291 -92.5t-195 -253.5q-61 -138 -61 -262zM352 1446h277l209 -234l-37 -38z" />
<glyph unicode="&#xe1;" d="M23 340q0 109 34 207q86 252 280.5 387t463.5 135q89 0 280 -29l-239 -1040h-170l39 172q-84 -93 -173.5 -145t-199.5 -52q-102 0 -174.5 51.5t-106.5 132.5t-34 181zM209 344q0 -67 19.5 -120.5t66.5 -89.5t115 -36q163 0 335 224l142 618q-80 12 -131 12 q-168 0 -291 -92.5t-195 -253.5q-61 -138 -61 -262zM659 1208l222 238h278l-465 -279z" />
<glyph unicode="&#xe2;" d="M23 340q0 109 34 207q86 252 280.5 387t463.5 135q89 0 280 -29l-239 -1040h-170l39 172q-84 -93 -173.5 -145t-199.5 -52q-102 0 -174.5 51.5t-106.5 132.5t-34 181zM209 344q0 -67 19.5 -120.5t66.5 -89.5t115 -36q163 0 335 224l142 618q-80 12 -131 12 q-168 0 -291 -92.5t-195 -253.5q-61 -138 -61 -262zM453 1214l262 232h135l170 -234l-37 -41l-219 166l-281 -166z" />
<glyph unicode="&#xe3;" d="M23 340q0 109 34 207q86 252 280.5 387t463.5 135q89 0 280 -29l-239 -1040h-170l39 172q-84 -93 -173.5 -145t-199.5 -52q-102 0 -174.5 51.5t-106.5 132.5t-34 181zM209 344q0 -67 19.5 -120.5t66.5 -89.5t115 -36q163 0 335 224l142 618q-80 12 -131 12 q-168 0 -291 -92.5t-195 -253.5q-61 -138 -61 -262zM440 1260q42 72 85 105.5t116 33.5q61 0 153 -29t119 -29q59 0 123 54l45 -39q-48 -72 -91 -104.5t-118 -32.5q-48 0 -138 27.5t-132 27.5q-59 0 -119 -47z" />
<glyph unicode="&#xe4;" d="M23 340q0 109 34 207q86 252 280.5 387t463.5 135q89 0 280 -29l-239 -1040h-170l39 172q-84 -93 -173.5 -145t-199.5 -52q-102 0 -174.5 51.5t-106.5 132.5t-34 181zM209 344q0 -67 19.5 -120.5t66.5 -89.5t115 -36q163 0 335 224l142 618q-80 12 -131 12 q-168 0 -291 -92.5t-195 -253.5q-61 -138 -61 -262zM487 1313q0 42 30.5 73t72.5 31q41 0 72.5 -31.5t31.5 -72.5q0 -43 -30.5 -74t-73.5 -31t-73 31t-30 74zM844 1313q0 43 30.5 73.5t73.5 30.5q41 0 72 -31.5t31 -72.5q0 -42 -30.5 -73.5t-72.5 -31.5q-43 0 -73.5 31 t-30.5 74z" />
<glyph unicode="&#xe5;" d="M23 340q0 109 34 207q86 252 280.5 387t463.5 135q89 0 280 -29l-239 -1040h-170l39 172q-84 -93 -173.5 -145t-199.5 -52q-102 0 -174.5 51.5t-106.5 132.5t-34 181zM209 344q0 -67 19.5 -120.5t66.5 -89.5t115 -36q163 0 335 224l142 618q-80 12 -131 12 q-168 0 -291 -92.5t-195 -253.5q-61 -138 -61 -262zM606 1311q0 66 47 112.5t113 46.5t113 -46.5t47 -112.5t-47 -113t-113 -47t-113 47t-47 113zM670 1311q0 -38 29 -67.5t67 -29.5t67 29.5t29 67.5q0 39 -28.5 66.5t-67.5 27.5t-67.5 -27.5t-28.5 -66.5z" />
<glyph unicode="&#xe6;" horiz-adv-x="1792" d="M20 317q0 88 24 181.5t67 169.5q114 204 291.5 309.5t408.5 105.5q88 0 193 -20l-23 -102q123 129 342 129q188 0 285.5 -109t97.5 -301q0 -38 -14 -166h-785q-4 -82 -4 -123q0 -143 72.5 -228t212.5 -85q221 0 401 229l47 -26q-72 -153 -197.5 -237.5t-293.5 -84.5 q-138 0 -242 65.5t-141 190.5q-44 -54 -86 -94.5t-94.5 -78t-114 -57.5t-127.5 -20q-156 0 -238 96t-82 256zM205 338q0 -49 10 -92t31 -80t59.5 -58.5t89.5 -21.5q46 0 95 18.5t96 53.5t80 64t75 71q-8 41 -8 92q0 56 6 114.5t19 125.5t22.5 110t30 123.5t27.5 110.5 q-16 2 -60 2q-92 0 -175 -29.5t-144 -79t-110.5 -113.5t-80.5 -135t-47 -141.5t-16 -134.5zM936 631h590q4 58 4 88q0 254 -227 254q-78 0 -139.5 -26.5t-104 -76.5t-71.5 -107t-52 -132z" />
<glyph unicode="&#xe7;" horiz-adv-x="1024" d="M39 395q0 98 27.5 197.5t81.5 188.5t125.5 158.5t166 110t197.5 40.5q76 0 143.5 -19.5t121.5 -57.5t86 -100t32 -141v-33h-66q-12 104 -92.5 167t-185.5 63t-193 -57t-142 -146.5t-84 -192t-30 -200.5q0 -128 75.5 -209.5t201.5 -81.5q58 0 109.5 15t97 46t80 63.5 t77.5 80.5l47 -37q-80 -140 -186 -215.5t-260 -75.5q-31 0 -47 2l-10 -51q153 -31 153 -154q0 -29 -13.5 -60t-41.5 -62t-81.5 -50.5t-123.5 -19.5q-74 0 -190 33l20 65q74 -22 135 -22q54 0 96 24.5t42 73.5q0 20 -9 35.5t-20 24t-31 15.5t-33 9.5t-34 5.5l34 154 q-140 44 -208 152t-68 261z" />
<glyph unicode="&#xe8;" horiz-adv-x="1110" d="M37 412q0 129 41 250.5t114.5 217t186.5 153t248 57.5q192 0 292.5 -108t100.5 -304q0 -58 -12 -164h-779q-6 -58 -6 -117q0 -148 71.5 -233.5t215.5 -85.5q113 0 216.5 65t178.5 166l47 -33q-81 -156 -198.5 -236.5t-286.5 -80.5q-209 0 -319.5 120t-110.5 333zM256 629 h584q4 54 4 80q0 119 -56 194.5t-170 75.5q-250 0 -362 -350zM287 1446h276l209 -234l-37 -38z" />
<glyph unicode="&#xe9;" horiz-adv-x="1110" d="M37 412q0 129 41 250.5t114.5 217t186.5 153t248 57.5q192 0 292.5 -108t100.5 -304q0 -58 -12 -164h-779q-6 -58 -6 -117q0 -148 71.5 -233.5t215.5 -85.5q113 0 216.5 65t178.5 166l47 -33q-81 -156 -198.5 -236.5t-286.5 -80.5q-209 0 -319.5 120t-110.5 333zM256 629 h584q4 54 4 80q0 119 -56 194.5t-170 75.5q-250 0 -362 -350zM594 1208l221 238h279l-465 -279z" />
<glyph unicode="&#xea;" horiz-adv-x="1110" d="M37 412q0 129 41 250.5t114.5 217t186.5 153t248 57.5q192 0 292.5 -108t100.5 -304q0 -58 -12 -164h-779q-6 -58 -6 -117q0 -148 71.5 -233.5t215.5 -85.5q113 0 216.5 65t178.5 166l47 -33q-81 -156 -198.5 -236.5t-286.5 -80.5q-209 0 -319.5 120t-110.5 333zM256 629 h584q4 54 4 80q0 119 -56 194.5t-170 75.5q-250 0 -362 -350zM389 1214l262 232h135l170 -234l-36 -41l-220 166l-280 -166z" />
<glyph unicode="&#xeb;" horiz-adv-x="1110" d="M37 412q0 129 41 250.5t114.5 217t186.5 153t248 57.5q192 0 292.5 -108t100.5 -304q0 -58 -12 -164h-779q-6 -58 -6 -117q0 -148 71.5 -233.5t215.5 -85.5q113 0 216.5 65t178.5 166l47 -33q-81 -156 -198.5 -236.5t-286.5 -80.5q-209 0 -319.5 120t-110.5 333zM256 629 h584q4 54 4 80q0 119 -56 194.5t-170 75.5q-250 0 -362 -350zM418 1313q0 42 30 73t72 31q41 0 73 -31.5t32 -72.5q0 -43 -31 -74t-74 -31q-42 0 -72 31t-30 74zM774 1313q0 43 31 73.5t74 30.5q41 0 71.5 -31.5t30.5 -72.5q0 -42 -30 -73.5t-72 -31.5q-43 0 -74 31t-31 74z " />
<glyph unicode="&#xec;" horiz-adv-x="468" d="M-33 1446h277l209 -234l-37 -38zM-12 0l241 1042h177l-240 -1042h-178z" />
<glyph unicode="&#xed;" horiz-adv-x="468" d="M-12 0l241 1042h177l-240 -1042h-178zM274 1208l222 238h278l-465 -279z" />
<glyph unicode="&#xee;" horiz-adv-x="468" d="M-12 0l241 1042h177l-240 -1042h-178zM68 1214l262 232h135l170 -234l-37 -41l-219 166l-281 -166z" />
<glyph unicode="&#xef;" horiz-adv-x="468" d="M-12 0l241 1042h177l-240 -1042h-178zM96 1313q0 42 30.5 73t72.5 31q41 0 72.5 -31.5t31.5 -72.5q0 -43 -30.5 -74t-73.5 -31t-73 31t-30 74zM453 1313q0 43 30.5 73.5t73.5 30.5q41 0 71.5 -31.5t30.5 -72.5q0 -42 -30 -73.5t-72 -31.5q-43 0 -73.5 31t-30.5 74z" />
<glyph unicode="&#xf0;" horiz-adv-x="1236" d="M16 385q0 129 41 250.5t114.5 217.5t186.5 154t248 58q208 0 328 -137q-12 64 -42.5 136t-68.5 124l-362 -86l-45 96l338 80q-19 21 -41.5 41.5t-54 46.5t-44.5 37l191 47q77 -64 131 -129l174 41l45 -96l-151 -35q69 -117 100 -228t31 -245q0 -27 -2 -60.5t-9.5 -92 t-20 -115t-37 -125.5t-57.5 -128t-84 -116t-113 -97.5t-148 -65t-187 -24.5q-216 0 -338.5 119t-122.5 332zM203 358q0 -149 74 -238t219 -89q72 0 133 27t103.5 70.5t76.5 100.5t54 114.5t33.5 116t18.5 101.5t5 74q0 73 -15 132t-47.5 105t-88.5 71.5t-134 25.5 q-74 0 -137.5 -26.5t-106.5 -69.5t-77.5 -100t-54.5 -114.5t-33.5 -117t-18 -104t-4.5 -79.5z" />
<glyph unicode="&#xf1;" d="M-10 0l241 1042h175l-31 -137q169 180 350 180q122 0 208.5 -73.5t86.5 -192.5q0 -51 -25 -157l-151 -662h-176l155 672q19 89 19 116q0 39 -16 76.5t-58 67t-102 29.5q-137 0 -318 -164l-182 -797h-176zM397 1260q42 72 85 105.5t116 33.5q61 0 153 -29t119 -29 q59 0 123 54l45 -39q-48 -72 -91 -104.5t-118 -32.5q-48 0 -138 27.5t-132 27.5q-59 0 -119 -47z" />
<glyph unicode="&#xf2;" horiz-adv-x="1236" d="M33 408q0 85 21.5 179t58.5 169q163 331 549 331q218 0 341 -118.5t123 -333.5q0 -123 -45 -250q-69 -207 -219 -316.5t-368 -109.5q-215 0 -338 118.5t-123 330.5zM219 383q0 -149 75.5 -238.5t223.5 -89.5q82 0 152.5 39t118.5 103t82.5 145t50.5 164t16 162 q0 145 -70 234t-217 89q-88 0 -161.5 -39.5t-122.5 -103.5t-83.5 -145t-49.5 -162t-15 -158zM330 1446h276l209 -234l-37 -38z" />
<glyph unicode="&#xf3;" horiz-adv-x="1236" d="M33 408q0 85 21.5 179t58.5 169q163 331 549 331q218 0 341 -118.5t123 -333.5q0 -123 -45 -250q-69 -207 -219 -316.5t-368 -109.5q-215 0 -338 118.5t-123 330.5zM219 383q0 -149 75.5 -238.5t223.5 -89.5q82 0 152.5 39t118.5 103t82.5 145t50.5 164t16 162 q0 145 -70 234t-217 89q-88 0 -161.5 -39.5t-122.5 -103.5t-83.5 -145t-49.5 -162t-15 -158zM639 1208l221 238h279l-465 -279z" />
<glyph unicode="&#xf4;" horiz-adv-x="1236" d="M33 408q0 85 21.5 179t58.5 169q163 331 549 331q218 0 341 -118.5t123 -333.5q0 -123 -45 -250q-69 -207 -219 -316.5t-368 -109.5q-215 0 -338 118.5t-123 330.5zM219 383q0 -149 75.5 -238.5t223.5 -89.5q82 0 152.5 39t118.5 103t82.5 145t50.5 164t16 162 q0 145 -70 234t-217 89q-88 0 -161.5 -39.5t-122.5 -103.5t-83.5 -145t-49.5 -162t-15 -158zM430 1214l262 232h135l170 -234l-36 -41l-220 166l-280 -166z" />
<glyph unicode="&#xf5;" horiz-adv-x="1236" d="M33 408q0 85 21.5 179t58.5 169q163 331 549 331q218 0 341 -118.5t123 -333.5q0 -123 -45 -250q-69 -207 -219 -316.5t-368 -109.5q-215 0 -338 118.5t-123 330.5zM219 383q0 -149 75.5 -238.5t223.5 -89.5q82 0 152.5 39t118.5 103t82.5 145t50.5 164t16 162 q0 145 -70 234t-217 89q-88 0 -161.5 -39.5t-122.5 -103.5t-83.5 -145t-49.5 -162t-15 -158zM420 1260q42 72 85 105.5t116 33.5q61 0 153 -29t119 -29q59 0 123 54l45 -39q-48 -72 -91 -104.5t-118 -32.5q-48 0 -138 27.5t-132 27.5q-59 0 -119 -47z" />
<glyph unicode="&#xf6;" horiz-adv-x="1236" d="M33 408q0 85 21.5 179t58.5 169q163 331 549 331q218 0 341 -118.5t123 -333.5q0 -123 -45 -250q-69 -207 -219 -316.5t-368 -109.5q-215 0 -338 118.5t-123 330.5zM219 383q0 -149 75.5 -238.5t223.5 -89.5q82 0 152.5 39t118.5 103t82.5 145t50.5 164t16 162 q0 145 -70 234t-217 89q-88 0 -161.5 -39.5t-122.5 -103.5t-83.5 -145t-49.5 -162t-15 -158zM416 1313q0 42 30 73t72 31q41 0 73 -31.5t32 -72.5q0 -43 -31 -74t-74 -31q-42 0 -72 31t-30 74zM772 1313q0 43 31 73.5t74 30.5q41 0 71.5 -31.5t30.5 -72.5q0 -42 -30 -73.5 t-72 -31.5q-43 0 -74 31t-31 74z" />
<glyph unicode="&#xf7;" horiz-adv-x="1482" d="M129 535l35 159h1159l-37 -159h-1157zM555 281q0 44 32.5 76t76.5 32q43 0 72.5 -31.5t29.5 -78.5q0 -46 -28.5 -77.5t-71.5 -31.5q-46 0 -78.5 32.5t-32.5 78.5zM702 948q0 44 32 76.5t75 32.5q44 0 74 -32t30 -79q0 -46 -29.5 -77t-72.5 -31q-46 0 -77.5 32t-31.5 78z " />
<glyph unicode="&#xf8;" horiz-adv-x="1236" d="M-82 12l176 150q-32 69 -44.5 119.5t-12.5 121.5q0 44 6.5 96t25 119.5t46.5 130.5t76.5 125t110 108t151.5 74.5t196 28.5q114 0 215 -34t158 -107l149 127l52 -61l-158 -133q29 -66 41 -116t12 -118q0 -39 -5.5 -87t-23.5 -116t-45 -131.5t-76 -128t-111 -112 t-155 -77.5t-204 -30q-121 0 -203.5 28.5t-153.5 106.5l-172 -145zM205 362q0 -55 8 -102l700 592q-73 145 -266 145q-80 0 -146.5 -28.5t-111 -73.5t-79 -106t-53.5 -120.5t-31.5 -122t-16.5 -106.5t-4 -78zM246 182q35 -69 109 -104t159 -35q89 0 163 42t123 108.5 t82.5 152t48.5 170t15 164.5q0 44 -6 90z" />
<glyph unicode="&#xf9;" d="M53 260q0 44 27 172l139 610h176l-141 -614q-25 -117 -25 -154q0 -83 52.5 -127.5t134.5 -44.5q89 0 168.5 55.5t158.5 143.5l172 741h172l-241 -1042h-172l39 168q-82 -98 -159 -144.5t-192 -46.5q-132 0 -220.5 76t-88.5 207zM309 1446h277l209 -234l-37 -38z" />
<glyph unicode="&#xfa;" d="M53 260q0 44 27 172l139 610h176l-141 -614q-25 -117 -25 -154q0 -83 52.5 -127.5t134.5 -44.5q89 0 168.5 55.5t158.5 143.5l172 741h172l-241 -1042h-172l39 168q-82 -98 -159 -144.5t-192 -46.5q-132 0 -220.5 76t-88.5 207zM616 1208l222 238h278l-465 -279z" />
<glyph unicode="&#xfb;" d="M53 260q0 44 27 172l139 610h176l-141 -614q-25 -117 -25 -154q0 -83 52.5 -127.5t134.5 -44.5q89 0 168.5 55.5t158.5 143.5l172 741h172l-241 -1042h-172l39 168q-82 -98 -159 -144.5t-192 -46.5q-132 0 -220.5 76t-88.5 207zM410 1214l262 232h135l170 -234l-37 -41 l-219 166l-281 -166z" />
<glyph unicode="&#xfc;" d="M53 260q0 44 27 172l139 610h176l-141 -614q-25 -117 -25 -154q0 -83 52.5 -127.5t134.5 -44.5q89 0 168.5 55.5t158.5 143.5l172 741h172l-241 -1042h-172l39 168q-82 -98 -159 -144.5t-192 -46.5q-132 0 -220.5 76t-88.5 207zM422 1313q0 42 30 73t72 31q41 0 73 -31.5 t32 -72.5q0 -43 -31 -74t-74 -31q-42 0 -72 31t-30 74zM778 1313q0 43 31 73.5t74 30.5q41 0 71.5 -31.5t30.5 -72.5q0 -42 -30 -73.5t-72 -31.5q-43 0 -74 31t-31 74z" />
<glyph unicode="&#xfd;" horiz-adv-x="937" d="M-240 -369q74 7 139 38t116.5 81t86.5 96t72 105l82 133l-188 958h176l139 -772l483 772h158l-737 -1153q-70 -109 -122.5 -166t-127.5 -96q-106 -55 -273 -55zM510 1208l221 238h279l-465 -279z" />
<glyph unicode="&#xfe;" d="M-113 -442l437 1888h174l-127 -551q167 190 362 190q152 0 237 -99t85 -255q0 -85 -24.5 -182.5t-80 -201t-135 -186.5t-201.5 -136.5t-266 -53.5q-58 0 -186 21l-101 -434h-174zM188 104q75 -14 129 -14q96 0 179.5 32.5t141.5 85.5t103.5 118.5t72 135t39.5 130 t13 108.5q0 68 -18.5 124t-64.5 95t-115 39q-170 0 -332 -208z" />
<glyph unicode="&#xff;" horiz-adv-x="937" d="M-240 -369q74 7 139 38t116.5 81t86.5 96t72 105l82 133l-188 958h176l139 -772l483 772h158l-737 -1153q-70 -109 -122.5 -166t-127.5 -96q-106 -55 -273 -55zM332 1313q0 42 30 73t72 31q41 0 73 -31.5t32 -72.5q0 -43 -31 -74t-74 -31q-42 0 -72 31t-30 74zM688 1313 q0 43 31 73.5t74 30.5q41 0 71.5 -31.5t30.5 -72.5q0 -42 -30 -73.5t-72 -31.5q-43 0 -74 31t-31 74z" />
<glyph unicode="&#x152;" horiz-adv-x="2091" d="M86 621q0 68 10.5 140t38.5 157.5t71 162t114 149.5t161 126t218 85t280 32q108 0 297 -27h870l-26 -115h-672l-119 -510h604l-28 -123h-605l-131 -575h760l-28 -123h-947q-158 -25 -227 -25q-297 0 -469 174t-172 472zM285 596q0 -227 118 -363.5t342 -136.5 q97 0 240 41l264 1149q-145 68 -286 68q-119 0 -219.5 -33.5t-168.5 -87.5t-121.5 -125.5t-84.5 -143t-51 -146t-26.5 -128t-6.5 -94.5z" />
<glyph unicode="&#x153;" horiz-adv-x="1961" d="M37 403q0 154 57 293q78 188 219 288.5t340 100.5q284 0 398 -215q79 104 190 160.5t240 56.5q126 0 225 -58t143 -171q27 -69 27 -192q0 -52 -12 -150h-783q-3 -17 -4 -36.5t-1 -43.5t-1 -37q0 -147 73 -234t216 -87q64 0 120.5 17t106 52t88 71.5t84.5 90.5l47 -28 q-82 -158 -200.5 -242t-286.5 -84q-252 0 -373 213q-176 -209 -461 -209q-209 0 -330.5 117.5t-121.5 326.5zM219 393q0 -156 73.5 -245t221.5 -89q69 0 129 29t103 78.5t77.5 112t55 132t31 135.5t10.5 126q0 144 -70.5 229.5t-210.5 85.5q-83 0 -154 -39.5t-119 -103 t-82 -143t-49.5 -158t-15.5 -150.5zM1100 629h596q1 10 2.5 29t2.5 34t1 29q0 114 -52.5 186t-162.5 72q-84 0 -156 -35q-99 -48 -149.5 -123t-81.5 -192z" />
<glyph unicode="&#x178;" horiz-adv-x="1193" d="M-233 -428l4 74h22q342 0 602 458l-243 1342h178l205 -1133l710 1133h174l-891 -1403q-43 -68 -73.5 -112.5t-73 -99t-79 -89.5t-86 -71.5t-99.5 -56.5t-113.5 -33t-134.5 -13q-40 0 -102 4zM526 1700q0 42 30.5 73t72.5 31q41 0 72.5 -31.5t31.5 -72.5q0 -43 -30.5 -74 t-73.5 -31t-73 31t-30 74zM883 1700q0 43 30.5 73.5t73.5 30.5q41 0 72 -31.5t31 -72.5q0 -42 -30.5 -73.5t-72.5 -31.5q-43 0 -73.5 31t-30.5 74z" />
<glyph unicode="&#x2c6;" horiz-adv-x="598" d="M14 1214l262 232h136l170 -234l-37 -41l-219 166l-281 -166z" />
<glyph unicode="&#x2dc;" horiz-adv-x="598" d="M-20 1260q42 72 84.5 105.5t115.5 33.5q61 0 153.5 -29t119.5 -29q58 0 122 54l46 -39q-48 -72 -91 -104.5t-118 -32.5q-48 0 -138.5 27.5t-132.5 27.5q-58 0 -118 -47z" />
<glyph unicode="&#x2000;" horiz-adv-x="927" />
<glyph unicode="&#x2001;" horiz-adv-x="1855" />
<glyph unicode="&#x2002;" horiz-adv-x="927" />
<glyph unicode="&#x2003;" horiz-adv-x="1855" />
<glyph unicode="&#x2004;" horiz-adv-x="618" />
<glyph unicode="&#x2005;" horiz-adv-x="463" />
<glyph unicode="&#x2006;" horiz-adv-x="309" />
<glyph unicode="&#x2007;" horiz-adv-x="309" />
<glyph unicode="&#x2008;" horiz-adv-x="231" />
<glyph unicode="&#x2009;" horiz-adv-x="371" />
<glyph unicode="&#x200a;" horiz-adv-x="103" />
<glyph unicode="&#x2010;" horiz-adv-x="641" d="M8 481l23 101h530l-22 -101h-531z" />
<glyph unicode="&#x2011;" horiz-adv-x="641" d="M8 481l23 101h530l-22 -101h-531z" />
<glyph unicode="&#x2012;" horiz-adv-x="641" d="M8 481l23 101h530l-22 -101h-531z" />
<glyph unicode="&#x2013;" horiz-adv-x="1247" d="M8 481l25 101h1134l-22 -101h-1137z" />
<glyph unicode="&#x2014;" horiz-adv-x="1808" d="M8 481l25 101h1696l-23 -101h-1698z" />
<glyph unicode="&#x2018;" horiz-adv-x="468" d="M94 977l377 493l53 -28l-221 -465h-209z" />
<glyph unicode="&#x2019;" horiz-adv-x="468" d="M139 981l221 465h209l-376 -494z" />
<glyph unicode="&#x201a;" horiz-adv-x="468" d="M-156 -313l222 467h208l-376 -494z" />
<glyph unicode="&#x201c;" horiz-adv-x="724" d="M133 1028l332 440l49 -26l-190 -414h-191zM408 1028l331 440l49 -28l-186 -412h-194z" />
<glyph unicode="&#x201d;" horiz-adv-x="724" d="M158 1034l186 412h195l-332 -438zM434 1034l187 412h196l-334 -438z" />
<glyph unicode="&#x201e;" horiz-adv-x="724" d="M-125 -258l186 412h195l-332 -441zM152 -258l188 412h195l-332 -441z" />
<glyph unicode="&#x2022;" horiz-adv-x="681" d="M90 707q0 105 73 175t181 70q104 0 176 -71.5t72 -175.5q0 -101 -71 -169.5t-175 -68.5q-112 0 -184 67.5t-72 172.5z" />
<glyph unicode="&#x2026;" horiz-adv-x="2048" d="M117 88q0 41 29.5 69.5t72.5 28.5t70.5 -27.5t27.5 -68.5q0 -43 -28.5 -71.5t-69.5 -28.5q-42 0 -72 29t-30 69zM801 88q0 41 29.5 69.5t72.5 28.5t70.5 -27.5t27.5 -68.5q0 -43 -28.5 -71.5t-69.5 -28.5q-42 0 -72 29t-30 69zM1483 88q0 41 29.5 69.5t72.5 28.5 t70.5 -27.5t27.5 -68.5q0 -43 -28.5 -71.5t-69.5 -28.5q-42 0 -72 29t-30 69z" />
<glyph unicode="&#x202f;" horiz-adv-x="371" />
<glyph unicode="&#x2039;" horiz-adv-x="468" d="M29 541l276 235h148l-289 -246l194 -231h-129z" />
<glyph unicode="&#x203a;" horiz-adv-x="468" d="M-35 299l293 246l-186 227h121l200 -240l-280 -233h-148z" />
<glyph unicode="&#x205f;" horiz-adv-x="463" />
<glyph unicode="&#x20ac;" horiz-adv-x="1394" d="M102 590l19 72h127q6 62 22 135h-131l19 71h133q30 118 86 220.5t135.5 183.5t188 127.5t231.5 46.5q353 0 426 -334l-62 -25q-34 85 -95 138.5t-121 71.5t-126 18q-169 0 -290.5 -121t-180.5 -326h561l-18 -71h-561q-17 -76 -21 -135h541l-18 -72h-529v-25 q0 -53 7.5 -107.5t32.5 -122.5t64 -118.5t110 -85.5t163 -35q120 0 213 47.5t168 153.5l47 -29q-74 -156 -188.5 -231.5t-278.5 -75.5q-243 0 -387.5 163t-144.5 435v31h-142z" />
<glyph unicode="&#x2122;" horiz-adv-x="1499" d="M188 1356l23 90h545l-23 -90h-207l-131 -590h-127l135 590h-215zM612 766l246 680h51l138 -510l331 510h58l-23 -680h-117l21 424l-270 -424h-72l-105 408l-141 -408h-117z" />
<glyph unicode="&#x25fc;" horiz-adv-x="1044" d="M0 0v1044h1044v-1044h-1044z" />
</font>
</defs>
</svg>
